<?xml version="1.0" encoding="utf-8"?>
<!-- Generator: Adobe Illustrator 23.0.1, SVG Export Plug-In . SVG Version: 6.00 Build 0)  -->
<svg version="1.1" id="artwork" xmlns="http://www.w3.org/2000/svg" xmlns:xlink="http://www.w3.org/1999/xlink" x="0px" y="0px"
	 viewBox="0 0 135 40" style="enable-background:new 0 0 135 40;" xml:space="preserve">
<style type="text/css">
	.st0{fill:#A6A6A6;}
	.st1{fill:#FFFFFF;stroke:#FFFFFF;stroke-width:0.2;stroke-miterlimit:10;}
	.st2{fill:#FFFFFF;}
	.st3{fill-rule:evenodd;clip-rule:evenodd;fill:#FFFFFF;}
</style>
<path d="M5,0h125c2.8,0,5,2.2,5,5v30c0,2.8-2.2,5-5,5H5c-2.8,0-5-2.2-5-5V5C0,2.2,2.2,0,5,0z"/>
<path class="st0" d="M130,0.8c2.3,0,4.2,1.9,4.2,4.2v30c0,2.3-1.9,4.2-4.2,4.2H5c-2.3,0-4.2-1.9-4.2-4.2l0,0V5
	c0-2.3,1.9-4.2,4.2-4.2l0,0H130 M130,0H5C2.2,0,0,2.2,0,5v30c0,2.8,2.2,5,5,5h125c2.8,0,5-2.2,5-5V5C135,2.2,132.8,0,130,0z"/>
<path class="st1" d="M47.4,10.2c0,0.7-0.2,1.5-0.8,2c-0.6,0.6-1.4,0.9-2.2,0.9c-0.8,0-1.6-0.3-2.2-0.9C41,11,41,9,42.3,7.8
	c0.9-0.9,2.3-1.1,3.4-0.6c0.4,0.1,0.7,0.4,0.9,0.7l-0.5,0.5c-0.4-0.5-1-0.8-1.6-0.7c-1.3,0-2.4,1.1-2.4,2.4c0,1.3,1.1,2.4,2.4,2.4
	c0.6,0,1.2-0.2,1.6-0.7c0.3-0.3,0.5-0.8,0.5-1.2h-2.2V9.8h2.9C47.4,9.9,47.4,10.1,47.4,10.2z"/>
<path class="st1" d="M52,7.7h-2.7v1.9h2.5v0.7h-2.5v1.9H52V13h-3.5V7H52V7.7z"/>
<path class="st1" d="M55.3,13h-0.8V7.7h-1.7V7H57v0.7h-1.7V13z"/>
<path class="st1" d="M59.9,13V7h0.8v6H59.9z"/>
<path class="st1" d="M64.1,13h-0.8V7.7h-1.7V7h4.1v0.7h-1.7V13z"/>
<path class="st1" d="M73.6,12.2c-1.2,1.2-3.2,1.2-4.4,0c0,0,0,0,0,0C68,11,68,9,69.2,7.8c0.6-0.6,1.4-0.9,2.2-0.9
	c0.8,0,1.6,0.3,2.2,0.9c0.6,0.6,0.9,1.4,0.9,2.2C74.5,10.8,74.2,11.6,73.6,12.2z M69.8,11.7c0.9,0.9,2.3,0.9,3.2,0c0,0,0,0,0,0
	c0.9-1,0.9-2.5,0-3.4c-0.9-0.9-2.3-0.9-3.2,0c0,0,0,0,0,0C68.9,9.3,68.9,10.7,69.8,11.7z"/>
<path class="st1" d="M75.6,13V7h0.9l2.9,4.7l0,0v-1.2V7h0.8v6h-0.8l-3.1-4.9l0,0v1.1V13H75.6z"/>
<path class="st2" d="M47.8,23h6.1c0,0.2,0.1,0.3,0.1,0.5c0,0.2,0,0.4,0,0.6c0,0.8-0.1,1.6-0.4,2.3c-0.2,0.7-0.6,1.4-1.2,2
	c-0.6,0.6-1.2,1.1-2,1.4c-0.8,0.3-1.8,0.5-2.7,0.5c-0.9,0-1.8-0.2-2.6-0.5c-0.8-0.3-1.5-0.8-2.1-1.4c-2.6-2.7-2.6-6.9,0-9.6
	c0.6-0.6,1.3-1.1,2.1-1.4c1.7-0.7,3.6-0.7,5.3,0c0.8,0.4,1.4,0.9,2,1.5L51,20.5c-0.4-0.4-0.9-0.8-1.4-1c-0.6-0.2-1.2-0.4-1.8-0.4
	c-0.6,0-1.1,0.1-1.6,0.3c-0.5,0.2-1,0.5-1.3,0.9c-0.4,0.4-0.7,0.9-0.9,1.4c-0.2,0.6-0.4,1.2-0.3,1.8c0,0.6,0.1,1.2,0.3,1.8
	c0.2,0.5,0.5,1,0.9,1.4c0.4,0.4,0.9,0.7,1.4,0.9c1.1,0.4,2.3,0.4,3.3,0c0.4-0.2,0.8-0.4,1.2-0.8c0.3-0.2,0.5-0.5,0.6-0.8
	c0.2-0.3,0.3-0.7,0.4-1.1h-4V23z"/>
<path class="st2" d="M57.6,20c-0.2,0-0.4,0-0.6-0.1c-0.2-0.1-0.3-0.2-0.5-0.3c-0.1-0.1-0.2-0.3-0.3-0.5c-0.1-0.2-0.1-0.4-0.1-0.6
	c0-0.2,0-0.4,0.1-0.5c0.1-0.2,0.2-0.3,0.3-0.5c0.1-0.1,0.3-0.2,0.5-0.3c0.2-0.1,0.4-0.1,0.6-0.1c0.8,0,1.5,0.7,1.5,1.5
	S58.4,20.1,57.6,20L57.6,20z M56.4,30v-8.8h2.3V30H56.4z"/>
<path class="st2" d="M62.2,23.2h-1.5v-2h1.5v-2.7h2.3v2.7h2.1v2h-2.1v3.5c0,0.2,0,0.4,0.1,0.6c0,0.2,0.1,0.3,0.2,0.5
	c0.2,0.2,0.4,0.3,0.7,0.3c0.2,0,0.4,0,0.5-0.1c0.1,0,0.2-0.1,0.3-0.2l0.6,2.1c-0.3,0.1-0.6,0.2-0.9,0.3c-0.3,0.1-0.7,0.1-1,0.1
	c-0.4,0-0.8-0.1-1.2-0.2c-0.3-0.1-0.6-0.3-0.9-0.6c-0.6-0.6-0.9-1.5-0.8-2.3L62.2,23.2z"/>
<path class="st2" d="M69.1,17.2h2.4v5.1h5.3v-5.1h2.4V30h-2.4v-5.4h-5.3V30h-2.4V17.2z"/>
<path class="st2" d="M87.6,28.8h-0.1c-0.3,0.4-0.6,0.8-1.1,1c-0.5,0.3-1,0.4-1.6,0.4c-0.9,0.1-1.8-0.3-2.4-1
	c-0.6-0.8-0.8-1.7-0.8-2.7v-5.3h2.3v5c0,0.5,0.1,1,0.4,1.4c0.3,0.3,0.7,0.5,1.2,0.5c0.3,0,0.6-0.1,0.8-0.2c0.2-0.1,0.5-0.3,0.6-0.5
	c0.2-0.3,0.3-0.5,0.4-0.8c0.1-0.3,0.1-0.7,0.1-1v-4.3h2.3V30h-2.2V28.8z"/>
<path class="st2" d="M92.2,17.2h2.3V21l-0.1,1.3h0.1c0.2-0.4,0.6-0.8,1-1c0.5-0.3,1.1-0.4,1.6-0.4c0.5,0,1.1,0.1,1.6,0.4
	c0.5,0.2,1,0.6,1.3,1c0.4,0.4,0.7,0.9,0.9,1.5c0.2,0.6,0.3,1.2,0.3,1.9c0,0.6-0.1,1.3-0.3,1.9c-0.2,0.6-0.5,1.1-0.9,1.6
	c-0.4,0.4-0.8,0.8-1.3,1c-0.5,0.2-1,0.4-1.6,0.3c-0.6,0-1.1-0.1-1.6-0.4c-0.4-0.2-0.8-0.6-1-1h-0.1v1h-2.2L92.2,17.2z M96.7,28.1
	c0.3,0,0.6-0.1,0.9-0.2c0.3-0.1,0.5-0.3,0.7-0.5c0.2-0.2,0.4-0.5,0.5-0.8c0.1-0.3,0.2-0.7,0.2-1c0-0.3-0.1-0.7-0.2-1
	c-0.1-0.3-0.3-0.6-0.5-0.8c-0.2-0.2-0.5-0.4-0.7-0.5c-0.3-0.1-0.6-0.2-0.9-0.2c-0.6,0-1.2,0.2-1.6,0.7c-0.2,0.2-0.4,0.5-0.5,0.8
	c-0.3,0.7-0.3,1.4,0,2.1c0.1,0.3,0.3,0.6,0.5,0.8c0.2,0.2,0.4,0.4,0.7,0.5C96.1,28.1,96.4,28.1,96.7,28.1z"/>
<path class="st3" d="M22.9,7.1c-7.3,0-13.2,5.9-13.2,13.2c0,5.7,3.6,10.7,9,12.5c0.7,0.1,0.9-0.3,0.9-0.6s0-1.4,0-2.5
	c-3.7,0.8-4.4-1.5-4.4-1.5c-0.2-0.8-0.8-1.5-1.5-1.9c-1.2-0.8,0.1-0.8,0.1-0.8c0.8,0.1,1.6,0.6,2,1.4c0.7,1.4,2.5,1.9,3.8,1.1
	c0,0,0,0,0,0c0.1-0.7,0.4-1.3,0.8-1.8c-2.9-0.3-6-1.5-6-6.5c0-1.3,0.5-2.6,1.4-3.5c-0.4-1.1-0.4-2.4,0.1-3.5c0,0,1.1-0.4,3.6,1.4
	c2.2-0.6,4.4-0.6,6.6,0c2.5-1.7,3.6-1.4,3.6-1.4c0.5,1.1,0.5,2.3,0.2,3.5c0.9,1,1.4,2.2,1.3,3.5c0,5.1-3.1,6.2-6,6.5
	c0.6,0.6,1,1.5,0.9,2.4c0,1.8,0,3.2,0,3.6s0.2,0.8,0.9,0.6c6.9-2.3,10.6-9.8,8.3-16.7C33.7,10.8,28.6,7.2,22.9,7.1L22.9,7.1z"/>
<path class="st2" d="M14.7,26.1c-0.1,0.1-0.2,0.1-0.2,0c-0.1,0-0.1-0.1-0.1-0.2c0.1-0.1,0.2-0.1,0.2,0c0,0,0,0,0,0
	C14.7,25.9,14.7,26,14.7,26.1z"/>
<path class="st2" d="M15.3,26.7c-0.1,0-0.2,0-0.3-0.1c-0.1-0.1-0.1-0.2,0-0.3s0.2,0,0.3,0.1S15.4,26.6,15.3,26.7L15.3,26.7z"/>
<path class="st2" d="M15.8,27.4c-0.1,0.1-0.2,0-0.3-0.1c-0.1-0.1-0.1-0.2,0-0.3c0.1,0,0.2,0,0.3,0.1S15.9,27.4,15.8,27.4L15.8,27.4z
	"/>
<path class="st2" d="M16.5,28.2c-0.1,0.1-0.2,0.1-0.3,0C16,28,16,27.9,16.1,27.8c0.1-0.1,0.2-0.1,0.3,0
	C16.5,27.9,16.6,28.1,16.5,28.2z"/>
<path class="st2" d="M17.5,28.6c0,0.1-0.2,0.2-0.3,0.1s-0.3-0.2-0.2-0.3s0.2-0.2,0.3-0.1S17.5,28.5,17.5,28.6z"/>
<path class="st2" d="M18.5,28.7c0,0.1-0.1,0.2-0.3,0.2S18,28.8,18,28.7s0.1-0.2,0.3-0.2S18.5,28.6,18.5,28.7z"/>
<path class="st2" d="M19.5,28.5c0,0.1-0.1,0.2-0.3,0.2s-0.3,0-0.3-0.1s0.1-0.2,0.2-0.2S19.5,28.4,19.5,28.5z"/>
</svg>
