<svg id="artwork" xmlns="http://www.w3.org/2000/svg" viewBox="0 0 155 60"><defs><style>.cls-1,.cls-3,.cls-4,.cls-5{fill:#fff;}.cls-1{fill-opacity:0;}.cls-2{fill:#a6a6a6;}.cls-3{stroke:#fff;stroke-miterlimit:10;stroke-width:0.2px;}.cls-5{fill-rule:evenodd;}</style></defs><rect class="cls-1" width="155" height="60"/><rect x="10" y="10" width="135" height="40" rx="5"/><path class="cls-2" d="M140,10.8a4.2,4.2,0,0,1,4.2,4.2V45a4.2,4.2,0,0,1-4.2,4.2H15A4.2,4.2,0,0,1,10.8,45V15A4.2,4.2,0,0,1,15,10.8H140m0-.8H15a5,5,0,0,0-5,5V45a5,5,0,0,0,5,5H140a5,5,0,0,0,5-5V15a5,5,0,0,0-5-5Z"/><path class="cls-3" d="M57.42,20.24a2.72,2.72,0,0,1-.75,2,2.9,2.9,0,0,1-2.2.88,3,3,0,0,1-2.21-.9,3.19,3.19,0,0,1,0-4.46,3.16,3.16,0,0,1,3.44-.65,2.54,2.54,0,0,1,.94.67l-.53.53a2,2,0,0,0-1.64-.72,2.4,2.4,0,1,0,1.68,4.13,1.92,1.92,0,0,0,.5-1.22H54.47v-.72h2.91A3.75,3.75,0,0,1,57.42,20.24Z"/><path class="cls-3" d="M62,17.74H59.3v1.9h2.46v.72H59.3v1.9H62V23H58.52V17H62Z"/><path class="cls-3" d="M65.28,23h-.77V17.74H62.83V17H67v.74H65.28Z"/><path class="cls-3" d="M69.94,23V17h.77v6Z"/><path class="cls-3" d="M74.13,23h-.77V17.74H71.68V17H75.8v.74H74.13Z"/><path class="cls-3" d="M83.61,22.22a3.11,3.11,0,0,1-4.4,0,3.24,3.24,0,0,1,0-4.44,2.93,2.93,0,0,1,2.2-.91,3,3,0,0,1,2.2.91A3.07,3.07,0,0,1,84.49,20,3,3,0,0,1,83.61,22.22Zm-3.83-.5a2.29,2.29,0,0,0,3.26,0,2.54,2.54,0,0,0,0-3.44,2.29,2.29,0,0,0-3.26,0,2.54,2.54,0,0,0,0,3.44Z"/><path class="cls-3" d="M85.58,23V17h.93l2.92,4.67h0l0-1.16V17h.77v6h-.8l-3.05-4.89h0l0,1.15V23Z"/><path class="cls-4" d="M57.8,33h6.13a2.91,2.91,0,0,1,.09.52c0,.2,0,.4,0,.6a7.32,7.32,0,0,1-.37,2.32,5.38,5.38,0,0,1-1.16,2,5.54,5.54,0,0,1-2,1.41,6.8,6.8,0,0,1-2.67.5,6.72,6.72,0,0,1-2.57-.5,6.37,6.37,0,0,1-2.09-1.39,6.81,6.81,0,0,1,0-9.57,6.37,6.37,0,0,1,2.09-1.39,7.05,7.05,0,0,1,5.29,0,6,6,0,0,1,2,1.49L61,30.55a4.38,4.38,0,0,0-1.37-1,4.28,4.28,0,0,0-1.8-.35,4.22,4.22,0,0,0-1.62.32,4,4,0,0,0-1.35.88A4.15,4.15,0,0,0,54,31.77a4.6,4.6,0,0,0-.35,1.81A4.65,4.65,0,0,0,54,35.4a4,4,0,0,0,.92,1.38,4.14,4.14,0,0,0,1.36.88,4.62,4.62,0,0,0,3.33,0,3.88,3.88,0,0,0,1.17-.76,2.7,2.7,0,0,0,.61-.81,4.46,4.46,0,0,0,.39-1.1H57.8Z"/><path class="cls-4" d="M67.55,30.05a1.39,1.39,0,0,1-.57-.12,1.36,1.36,0,0,1-.47-.32,1.38,1.38,0,0,1-.31-.47,1.41,1.41,0,0,1-.12-.59A1.45,1.45,0,0,1,66.2,28a1.48,1.48,0,0,1,.31-.47,1.51,1.51,0,0,1,.47-.32,1.39,1.39,0,0,1,.57-.12,1.5,1.5,0,0,1,0,3ZM66.42,40V31.23H68.7V40Z"/><path class="cls-4" d="M72.2,33.23H70.7v-2h1.5V28.55h2.29v2.68h2.1v2h-2.1v3.49a2.65,2.65,0,0,0,.06.58.9.9,0,0,0,.24.45.83.83,0,0,0,.69.3A1.28,1.28,0,0,0,76,38a1.3,1.3,0,0,0,.33-.17l.64,2.06a3.35,3.35,0,0,1-.86.29,4.64,4.64,0,0,1-1,.1,3,3,0,0,1-1.16-.21,2.44,2.44,0,0,1-.87-.57,3.16,3.16,0,0,1-.82-2.34Z"/><path class="cls-4" d="M79.08,27.19h2.36V32.3H86.7V27.19h2.36V40H86.7V34.58H81.44V40H79.08Z"/><path class="cls-4" d="M97.59,38.83h-.14a3,3,0,0,1-1.08,1.05,3.19,3.19,0,0,1-1.56.38,2.88,2.88,0,0,1-2.42-1,4.28,4.28,0,0,1-.79-2.71v-5.3h2.29v5a2,2,0,0,0,.41,1.41,1.52,1.52,0,0,0,1.19.45,1.57,1.57,0,0,0,.83-.21,1.91,1.91,0,0,0,.62-.55,2.7,2.7,0,0,0,.38-.82,3.63,3.63,0,0,0,.13-1V31.23h2.29V40H97.59Z"/><path class="cls-4" d="M102.24,27.19h2.29V31l-.14,1.25h.14a2.71,2.71,0,0,1,1-1,3.19,3.19,0,0,1,1.64-.39,3.63,3.63,0,0,1,1.56.35,4.15,4.15,0,0,1,1.32,1,4.89,4.89,0,0,1,.9,1.48,5.14,5.14,0,0,1,.33,1.87,5.23,5.23,0,0,1-.33,1.88A4.72,4.72,0,0,1,110,39a4.15,4.15,0,0,1-1.32,1,3.63,3.63,0,0,1-1.56.35,3.19,3.19,0,0,1-1.64-.39,2.64,2.64,0,0,1-1-.95h-.14v1h-2.15Zm4.44,10.91a2.11,2.11,0,0,0,.86-.18,2.16,2.16,0,0,0,.73-.5,2.4,2.4,0,0,0,.51-.78,2.87,2.87,0,0,0,.19-1,2.82,2.82,0,0,0-.19-1,2.45,2.45,0,0,0-.51-.79,2.31,2.31,0,0,0-.73-.5,2.11,2.11,0,0,0-.86-.18,2.19,2.19,0,0,0-1.59.66,2.56,2.56,0,0,0-.51.79,3,3,0,0,0,0,2.1,2.45,2.45,0,0,0,.51.79,2.19,2.19,0,0,0,.72.49A2.36,2.36,0,0,0,106.68,38.1Z"/><path class="cls-5" d="M32.91,17.15a13.18,13.18,0,0,0-4.17,25.68c.66.12.9-.29.9-.63s0-1.36,0-2.46c-3.66.8-4.44-1.55-4.44-1.55a3.42,3.42,0,0,0-1.46-1.93c-1.19-.82.09-.8.09-.8a2.77,2.77,0,0,1,2,1.36,2.81,2.81,0,0,0,3.84,1.09,2.8,2.8,0,0,1,.83-1.76c-2.92-.33-6-1.46-6-6.51a5.07,5.07,0,0,1,1.36-3.54A4.73,4.73,0,0,1,26,22.61s1.11-.35,3.63,1.35a12.59,12.59,0,0,1,6.6,0c2.51-1.7,3.62-1.35,3.62-1.35A4.76,4.76,0,0,1,40,26.1a5.11,5.11,0,0,1,1.35,3.54c0,5.06-3.08,6.17-6,6.5a3.16,3.16,0,0,1,.89,2.44c0,1.76,0,3.18,0,3.62s.23.76.9.63a13.18,13.18,0,0,0-4.17-25.68Z"/><path class="cls-4" d="M24.72,36.07a.17.17,0,0,1-.22,0c-.1,0-.15-.13-.12-.2a.15.15,0,0,1,.22,0c.1,0,.15.13.12.2ZM24.56,36"/><path class="cls-4" d="M25.26,36.66A.2.2,0,0,1,25,36.6c-.09-.09-.11-.21,0-.27s.18,0,.27.06.1.21,0,.27Zm-.13-.13"/><path class="cls-4" d="M25.77,37.42c-.08.06-.21,0-.29-.11a.24.24,0,0,1,0-.32c.08-.05.21,0,.3.12s.08.26,0,.31Zm0,0"/><path class="cls-4" d="M26.49,38.16a.26.26,0,0,1-.34,0c-.12-.11-.15-.26-.08-.34a.25.25,0,0,1,.34,0c.12.11.15.26.08.34Zm0,0"/><path class="cls-4" d="M27.47,38.58c0,.1-.18.15-.33.11s-.25-.17-.22-.27.18-.16.33-.11.25.17.22.27Zm0,0"/><path class="cls-4" d="M28.55,38.66c0,.11-.13.2-.28.2s-.29-.08-.29-.19.12-.2.28-.2.29.08.29.19Zm0,0"/><path class="cls-4" d="M29.55,38.49c0,.11-.09.21-.25.24s-.29,0-.31-.14.09-.22.24-.24.3,0,.32.14Zm0,0"/></svg>